<svg id="Layer_1" data-name="Layer 1" xmlns="http://www.w3.org/2000/svg" viewBox="0 0 1411.06153 841.89">
  <title>RelevateLogo</title>
  <path d="M131.58153,242.66218l26.14437-.001a65.5,65.5,0,0,1,0,131l-26.48671-.10654" fill="none" stroke="#231f20" stroke-miterlimit="10" stroke-width="20"/>
  <path d="M101.2259,622.66122v-418h56.5a103.5,103.5,0,1,1,0,207h-17.5l-.03669,1.68808L262.6653,617.1527" fill="none" stroke="#231f20" stroke-miterlimit="10" stroke-width="20"/>
  <path d="M112.96554,342.69676l220.106-152.13663Z" fill="none"/>
  <g>
    <line x1="159.24762" y1="309.00678" x2="312.56638" y2="137.87337" fill="none" stroke="#231f20" stroke-miterlimit="10" stroke-width="20"/>
    <polyline points="245.423 158.976 312.566 137.873 299.317 206.997" fill="none" stroke="#231f20" stroke-miterlimit="10" stroke-width="20"/>
  </g>
  <g>
    <path d="M451.09409,531.53738H290.27964q1.06494,22.0166,10.64941,37.62988a62.65979,62.65979,0,0,0,25.20508,23.60742,73.74515,73.74515,0,0,0,34.08008,7.98731q24.13769,0,40.64746-11.71485a54.99479,54.99479,0,0,0,21.833-31.59472h26.26954a82.08553,82.08553,0,0,1-30.35254,46.32714q-23.25439,17.93116-58.39746,17.92774-27.33985,0-48.98926-12.24707a86.44625,86.44625,0,0,1-33.90332-34.79q-12.24756-22.53956-12.24707-52.71777,0-30.16846,12.07031-52.89454a83.89338,83.89338,0,0,1,33.72461-34.79q21.64893-12.06446,49.34473-12.07032,27.68994,0,48.458,12.07032a83.44463,83.44463,0,0,1,31.9502,32.48242Q451.805,487.16872,451.80405,512.013,451.80405,524.79226,451.09409,531.53738Zm-33.19238-57.1543a58.73566,58.73566,0,0,0-24.67188-23.0752,75.19891,75.19891,0,0,0-34.08008-7.81054q-27.68994,0-47.21484,17.75-19.52784,17.75536-21.65527,50.05566H426.6Q426.94858,489.65262,417.90171,474.38308Z" fill="#231f20"/>
    <path d="M499.37241,356.16726V618.86745H474.5228V356.16726Z" fill="#231f20"/>
    <path d="M707.75327,531.53738H546.93881q1.065,22.0166,10.64942,37.62988a62.65973,62.65973,0,0,0,25.20508,23.60742,73.74515,73.74515,0,0,0,34.08008,7.98731q24.13769,0,40.64746-11.71485a54.99479,54.99479,0,0,0,21.833-31.59472h26.26954a82.08553,82.08553,0,0,1-30.35254,46.32714q-23.2544,17.93116-58.39746,17.92774-27.33985,0-48.98926-12.24707a86.44625,86.44625,0,0,1-33.90332-34.79q-12.24756-22.53956-12.24707-52.71777,0-30.16846,12.07031-52.89454a83.89338,83.89338,0,0,1,33.72461-34.79q21.64893-12.06446,49.34473-12.07032,27.68994,0,48.458,12.07032a83.44463,83.44463,0,0,1,31.9502,32.48242q11.18262,20.41845,11.18164,45.26269Q708.46323,524.79226,707.75327,531.53738Zm-33.19238-57.1543a58.73566,58.73566,0,0,0-24.67188-23.0752,75.19891,75.19891,0,0,0-34.08008-7.81054q-27.68994,0-47.21484,17.75-19.52784,17.75536-21.65528,50.05566H683.25913Q683.60776,489.65262,674.56089,474.38308Z" fill="#231f20"/>
    <path d="M800.05112,594.72781l65.32031-169.69043h26.27051L813.89682,618.86745H785.8519L708.10678,425.03738h26.625Z" fill="#231f20"/>
    <path d="M903.17807,469.23562a85.15412,85.15412,0,0,1,33.01465-34.79q21.1172-12.24756,47.74805-12.24805,27.68994,0,47.74707,12.78028,20.05224,12.7793,28.93262,32.66015V425.03738h24.8496V618.86745h-24.8496V575.91238q-9.23585,19.88525-29.28711,32.83789-20.061,12.9624-47.74805,12.957-26.2749,0-47.39258-12.42481a86.05315,86.05315,0,0,1-33.01465-35.1455q-11.89892-22.71387-11.89258-52.53907Q891.28549,491.7781,903.17807,469.23562Zm147.85742,11.53711a68.40129,68.40129,0,0,0-26.09277-27.335,71.16756,71.16756,0,0,0-36.38769-9.585q-20.59278,0-36.91993,9.22949A65.4238,65.4238,0,0,0,925.8978,479.885q-9.41016,17.57228-9.40723,41.71289,0,23.7876,9.40723,41.71192,9.40283,17.93115,25.7373,27.335Q967.96079,600.055,988.555,600.052a71.15794,71.15794,0,0,0,36.38769-9.585,68.3636,68.3636,0,0,0,26.09277-27.335q9.58448-17.74658,9.585-41.17968Q1060.62046,498.52224,1051.03549,480.77273Z" fill="#231f20"/>
    <path d="M1151.85092,445.98269V566.32742q0,17.75536,6.74512,24.49511,6.73976,6.74707,23.78516,6.74512h22.71972v21.2998h-26.625q-26.27635,0-39.0498-12.24707-12.78076-12.24755-12.78027-40.293V445.98269h-26.98047V425.03738h26.98047V376.40261h25.20507v48.63477h53.25v20.94531Z" fill="#231f20"/>
    <path d="M1397.86069,531.53738H1237.04624q1.06494,22.0166,10.64941,37.62988a62.65986,62.65986,0,0,0,25.20508,23.60742,73.74515,73.74515,0,0,0,34.08008,7.98731q24.13768,0,40.64746-11.71485a54.99485,54.99485,0,0,0,21.833-31.59472h26.26953a82.08553,82.08553,0,0,1-30.35254,46.32714q-23.25439,17.93116-58.39746,17.92774-27.33986,0-48.98926-12.24707a86.44625,86.44625,0,0,1-33.90332-34.79q-12.24756-22.53956-12.24707-52.71777,0-30.16846,12.07031-52.89454a83.89338,83.89338,0,0,1,33.72461-34.79q21.64893-12.06446,49.34473-12.07032,27.68994,0,48.458,12.07032a83.44463,83.44463,0,0,1,31.9502,32.48242q11.18262,20.41845,11.18164,45.26269Q1398.57065,524.79226,1397.86069,531.53738Zm-33.19238-57.1543a58.73566,58.73566,0,0,0-24.67188-23.0752,75.19891,75.19891,0,0,0-34.08008-7.81054q-27.68994,0-47.21484,17.75-19.52782,17.75536-21.65527,50.05566h136.32031Q1373.71518,489.65262,1364.66831,474.38308Z" fill="#231f20"/>
  </g>
</svg>
